HIERARCHY
ROOT Hips
{
	OFFSET 0.000000 100.481300 0.000000
	CHANNELS 6 Xposition Yposition Zposition Xrotation Yrotation Zrotation
	JOINT Spine
	{
		OFFSET -0.279200 12.230698 -2.892100
		CHANNELS 3 Xrotation Yrotation Zrotation
		JOINT Spine1
		{
			OFFSET -0.325700 14.269203 -3.374200
			CHANNELS 3 Xrotation Yrotation Zrotation
			JOINT Spine2
			{
				OFFSET -0.372300 16.307602 -0.352600
				CHANNELS 3 Xrotation Yrotation Zrotation
				JOINT Neck
				{
					OFFSET -0.418800 17.814194 8.416900
					CHANNELS 3 Xrotation Yrotation Zrotation
					JOINT Head
					{
						OFFSET 0.000000 7.031097 3.806800
						CHANNELS 3 Xrotation Yrotation Zrotation
						JOINT HeadTop_End
						{
							OFFSET 0.000000 24.646606 12.978600
							CHANNELS 3 Xrotation Yrotation Zrotation
							End Site
							{
								OFFSET 0.000000 27.854965 0.000000
							}
						}
					}
				}
				JOINT LeftShoulder
				{
					OFFSET 16.952999 14.495407 -7.737500
					CHANNELS 3 Xrotation Yrotation Zrotation
					JOINT LeftArm
					{
						OFFSET 9.308998 -2.777710 0.208600
						CHANNELS 3 Xrotation Yrotation Zrotation
						JOINT LeftForeArm
						{
							OFFSET 29.972298 0.000000 0.000000
							CHANNELS 3 Xrotation Yrotation Zrotation
							JOINT LeftHand
							{
								OFFSET 26.026505 0.000000 0.000000
								CHANNELS 3 Xrotation Yrotation Zrotation
								JOINT LeftHandThumb1
								{
									OFFSET 12.240501 -7.147949 9.207150
									CHANNELS 3 Xrotation Yrotation Zrotation
									JOINT LeftHandThumb2
									{
										OFFSET 4.138618 -2.389435 2.389433
										CHANNELS 3 Xrotation Yrotation Zrotation
										JOINT LeftHandThumb3
										{
											OFFSET 2.726913 -1.574387 1.574386
											CHANNELS 3 Xrotation Yrotation Zrotation
											JOINT LeftHandThumb4
											{
												OFFSET 3.941010 -2.275345 2.275342
												CHANNELS 3 Xrotation Yrotation Zrotation
												End Site
												{
													OFFSET -0.005798 5.087799 0.009903
												}
											}
										}
									}
								}
								JOINT LeftHandIndex1
								{
									OFFSET 24.424698 -1.985611 5.953459
									CHANNELS 3 Xrotation Yrotation Zrotation
									JOINT LeftHandIndex2
									{
										OFFSET 6.426697 0.000000 0.000000
										CHANNELS 3 Xrotation Yrotation Zrotation
										JOINT LeftHandIndex3
										{
											OFFSET 5.337898 0.000000 0.000000
											CHANNELS 3 Xrotation Yrotation Zrotation
											JOINT LeftHandIndex4
											{
												OFFSET 4.409401 0.000000 0.000000
												CHANNELS 3 Xrotation Yrotation Zrotation
												End Site
												{
													OFFSET 0.000000 4.409363 0.014373
												}
											}
										}
									}
								}
								JOINT LeftHandMiddle1
								{
									OFFSET 23.810104 0.000000 0.000000
									CHANNELS 3 Xrotation Yrotation Zrotation
									JOINT LeftHandMiddle2
									{
										OFFSET 7.176498 0.000000 0.000000
										CHANNELS 3 Xrotation Yrotation Zrotation
										JOINT LeftHandMiddle3
										{
											OFFSET 6.774902 0.000000 0.000000
											CHANNELS 3 Xrotation Yrotation Zrotation
											JOINT LeftHandMiddle4
											{
												OFFSET 5.403328 0.000000 0.000000
												CHANNELS 3 Xrotation Yrotation Zrotation
												End Site
												{
													OFFSET -0.027702 5.403244 0.017414
												}
											}
										}
									}
								}
								JOINT LeftHandRing1
								{
									OFFSET 22.908401 -0.839279 -6.020567
									CHANNELS 3 Xrotation Yrotation Zrotation
									JOINT LeftHandRing2
									{
										OFFSET 6.337502 0.000000 0.000000
										CHANNELS 3 Xrotation Yrotation Zrotation
										JOINT LeftHandRing3
										{
											OFFSET 5.779297 0.000000 0.000000
											CHANNELS 3 Xrotation Yrotation Zrotation
											JOINT LeftHandRing4
											{
												OFFSET 4.965698 0.000000 0.000000
												CHANNELS 3 Xrotation Yrotation Zrotation
												End Site
												{
													OFFSET 0.000000 4.965668 0.016186
												}
											}
										}
									}
								}
								JOINT LeftHandPinky1
								{
									OFFSET 20.037003 -1.530319 -10.950146
									CHANNELS 3 Xrotation Yrotation Zrotation
									JOINT LeftHandPinky2
									{
										OFFSET 5.254700 0.000000 0.000000
										CHANNELS 3 Xrotation Yrotation Zrotation
										JOINT LeftHandPinky3
										{
											OFFSET 4.810204 0.000000 0.000000
											CHANNELS 3 Xrotation Yrotation Zrotation
											JOINT LeftHandPinky4
											{
												OFFSET 3.647202 0.000000 0.000000
												CHANNELS 3 Xrotation Yrotation Zrotation
												End Site
												{
													OFFSET 0.000000 3.647186 0.011889
												}
											}
										}
									}
								}
							}
						}
					}
				}
				JOINT RightShoulder
				{
					OFFSET -15.141001 14.495407 -7.737500
					CHANNELS 3 Xrotation Yrotation Zrotation
					JOINT RightArm
					{
						OFFSET -9.308998 -2.777710 0.208500
						CHANNELS 3 Xrotation Yrotation Zrotation
						JOINT RightForeArm
						{
							OFFSET -29.972300 0.000000 0.000000
							CHANNELS 3 Xrotation Yrotation Zrotation
							JOINT RightHand
							{
								OFFSET -26.026505 0.000000 0.000000
								CHANNELS 3 Xrotation Yrotation Zrotation
								JOINT RightHandThumb1
								{
									OFFSET -12.240601 -7.148026 9.207092
									CHANNELS 3 Xrotation Yrotation Zrotation
									JOINT RightHandThumb2
									{
										OFFSET -4.138618 -2.389435 2.389433
										CHANNELS 3 Xrotation Yrotation Zrotation
										JOINT RightHandThumb3
										{
											OFFSET -2.726974 -1.574417 1.574421
											CHANNELS 3 Xrotation Yrotation Zrotation
											JOINT RightHandThumb4
											{
												OFFSET -3.941010 -2.275345 2.275343
												CHANNELS 3 Xrotation Yrotation Zrotation
												End Site
												{
													OFFSET 0.005814 5.087799 0.009927
												}
											}
										}
									}
								}
								JOINT RightHandIndex1
								{
									OFFSET -24.424698 -1.985657 5.953444
									CHANNELS 3 Xrotation Yrotation Zrotation
									JOINT RightHandIndex2
									{
										OFFSET -6.426697 0.000000 0.000000
										CHANNELS 3 Xrotation Yrotation Zrotation
										JOINT RightHandIndex3
										{
											OFFSET -5.337898 0.000000 0.000000
											CHANNELS 3 Xrotation Yrotation Zrotation
											JOINT RightHandIndex4
											{
												OFFSET -4.409401 0.000000 0.000000
												CHANNELS 3 Xrotation Yrotation Zrotation
												End Site
												{
													OFFSET 0.000000 4.409363 0.014408
												}
											}
										}
									}
								}
								JOINT RightHandMiddle1
								{
									OFFSET -23.810097 0.000000 0.000000
									CHANNELS 3 Xrotation Yrotation Zrotation
									JOINT RightHandMiddle2
									{
										OFFSET -7.176498 0.000000 0.000000
										CHANNELS 3 Xrotation Yrotation Zrotation
										JOINT RightHandMiddle3
										{
											OFFSET -6.774902 0.000000 0.000000
											CHANNELS 3 Xrotation Yrotation Zrotation
											JOINT RightHandMiddle4
											{
												OFFSET -5.403328 0.000000 0.000000
												CHANNELS 3 Xrotation Yrotation Zrotation
												End Site
												{
													OFFSET 0.027702 5.403244 0.017457
												}
											}
										}
									}
								}
								JOINT RightHandRing1
								{
									OFFSET -22.908302 -0.839325 -6.020576
									CHANNELS 3 Xrotation Yrotation Zrotation
									JOINT RightHandRing2
									{
										OFFSET -6.337502 0.000000 0.000000
										CHANNELS 3 Xrotation Yrotation Zrotation
										JOINT RightHandRing3
										{
											OFFSET -5.779297 0.000000 0.000000
											CHANNELS 3 Xrotation Yrotation Zrotation
											JOINT RightHandRing4
											{
												OFFSET -4.965698 0.000000 0.000000
												CHANNELS 3 Xrotation Yrotation Zrotation
												End Site
												{
													OFFSET 0.000000 4.965668 0.016226
												}
											}
										}
									}
								}
								JOINT RightHandPinky1
								{
									OFFSET -20.037003 -1.530334 -10.950259
									CHANNELS 3 Xrotation Yrotation Zrotation
									JOINT RightHandPinky2
									{
										OFFSET -5.254700 0.000000 0.000000
										CHANNELS 3 Xrotation Yrotation Zrotation
										JOINT RightHandPinky3
										{
											OFFSET -4.810204 0.000000 0.000000
											CHANNELS 3 Xrotation Yrotation Zrotation
											JOINT RightHandPinky4
											{
												OFFSET -3.647202 0.000000 0.000000
												CHANNELS 3 Xrotation Yrotation Zrotation
												End Site
												{
													OFFSET 0.000000 3.647186 0.011917
												}
											}
										}
									}
								}
							}
						}
					}
				}
			}
		}
	}
	JOINT LeftUpLeg
	{
		OFFSET 15.427100 -6.655098 0.678600
		CHANNELS 3 Xrotation Yrotation Zrotation
		JOINT LeftLeg
		{
			OFFSET 4.081073 -39.591068 13.024000
			CHANNELS 3 Xrotation Yrotation Zrotation
			JOINT LeftFoot
			{
				OFFSET -4.081074 -37.707932 -15.979700
				CHANNELS 3 Xrotation Yrotation Zrotation
				JOINT LeftToeBase
				{
					OFFSET 5.346399 -15.068900 20.645000
					CHANNELS 3 Xrotation Yrotation Zrotation
					JOINT LeftToe_End
					{
						OFFSET 2.754700 0.931300 11.300900
						CHANNELS 3 Xrotation Yrotation Zrotation
						End Site
						{
							OFFSET 0.000000 11.669021 0.000000
						}
					}
				}
			}
		}
	}
	JOINT RightUpLeg
	{
		OFFSET -15.569500 -6.655098 0.678600
		CHANNELS 3 Xrotation Yrotation Zrotation
		JOINT RightLeg
		{
			OFFSET -4.081825 -39.591045 13.023800
			CHANNELS 3 Xrotation Yrotation Zrotation
			JOINT RightFoot
			{
				OFFSET 4.081824 -37.707954 -15.979600
				CHANNELS 3 Xrotation Yrotation Zrotation
				JOINT RightToeBase
				{
					OFFSET -5.346400 -15.068900 20.645000
					CHANNELS 3 Xrotation Yrotation Zrotation
					JOINT RightToe_End
					{
						OFFSET -2.754700 0.931300 11.300900
						CHANNELS 3 Xrotation Yrotation Zrotation
						End Site
						{
							OFFSET 0.000000 11.669021 0.000000
						}
					}
				}
			}
		}
	}
}
MOTION
Frames: 4
Frame Time: 0.033333
37.383209 16.658791 404.803284 350.583119 -48.012303 35.868366 18.074853 -10.553175 -9.229410 19.028405 -12.776624 -4.710286 15.883622 -11.625670 -5.275615 14.364637 -5.498786 -7.594211 -6.465445 -15.710683 -2.082267 0.000000 0.000001 0.000001 -27.436844 -24.690716 13.527706 -39.007357 -26.538690 -11.932529 0.000050 -77.585697 0.000054 12.026093 10.943536 22.977129 -14.635675 -9.283311 17.775098 5.839029 12.453645 3.007700 -7.335816 -0.421719 13.147355 0.000001 -0.000001 0.000001 0.151605 3.370008 -9.906585 0.921741 3.156152 -32.553245 0.363375 2.032942 -20.266387 -0.000000 0.000000 0.000001 0.192447 3.580620 -12.002540 0.921739 3.156152 -32.553248 0.363373 2.032943 -20.266380 -0.000000 0.000000 0.000001 0.189442 3.566429 -11.860810 0.921737 3.156154 -32.553248 0.363374 2.032941 -20.266375 0.000000 0.000001 -0.000001 0.178721 3.514312 -11.341003 0.921744 3.156157 -32.553248 0.363374 2.032941 -20.266368 0.000000 -0.000000 -0.000006 0.545787 4.579540 25.926602 -53.823414 35.785284 72.166502 0.000024 34.170859 -0.000022 50.220414 -26.622735 -62.110667 -10.549218 9.206713 -9.278971 5.464520 -13.128964 -13.867218 -5.504773 -5.510968 -14.718515 -0.000001 -0.000002 -0.000004 0.052187 -2.478490 2.412165 -0.000000 -0.000001 -0.000000 0.000000 -0.000001 -0.000001 0.000000 -0.000000 -0.000000 0.052187 -2.478490 2.412165 0.000000 -0.000001 0.000006 0.000001 0.000000 -0.000001 -0.000001 -0.000000 -0.000000 0.052187 -2.478489 2.412165 0.000000 -0.000001 0.000000 -0.000000 -0.000000 0.000000 0.000000 -0.000000 0.000000 0.052187 -2.478490 2.412165 0.000000 -0.000001 0.000016 -0.000000 -0.000000 -0.000001 0.000000 -0.000000 -0.000001 -107.949262 9.049384 41.774574 99.080835 6.038148 1.339504 25.496227 -30.639201 -8.742466 -1.392072 0.000007 0.000009 -0.000000 0.000001 -0.000000 -42.089784 -37.727834 50.461854 112.317967 -26.481676 -8.269318 8.535340 13.373540 31.216970 -5.490048 0.000000 0.000012 -0.000001 -0.000000 0.000000 
37.938221 16.504753 408.467316 358.717355 -49.583417 41.233152 17.557669 -9.708245 -10.116131 18.331053 -11.941538 -5.244404 15.707536 -11.089873 -5.872987 15.030024 -5.384928 -7.529408 -8.530971 -16.313874 -2.497456 -0.000001 -0.000001 0.000001 -22.793397 -23.048221 11.929093 -34.288062 -28.537726 -6.486704 -0.000002 -71.416465 0.000003 6.246342 8.581253 3.908441 -13.494088 -8.740989 16.004354 5.567465 12.068213 6.235157 -7.335819 -0.421715 13.147352 -0.000001 -0.000001 -0.000001 0.132464 3.253684 -8.755106 0.628778 2.642352 -26.766183 0.211653 1.562011 -15.432283 0.000000 0.000000 -0.000002 0.162921 3.432654 -10.528415 0.628780 2.642356 -26.766183 0.211654 1.562009 -15.432278 0.000000 0.000000 -0.000002 0.160686 3.420584 -10.408503 0.628778 2.642354 -26.766178 0.211653 1.562008 -15.432278 -0.000000 -0.000001 0.000002 0.152708 3.376273 -9.968717 0.628780 2.642358 -26.766179 0.211654 1.562011 -15.432276 0.000000 0.000001 -0.000004 0.597811 4.462452 25.809084 -46.840225 32.485080 66.333377 0.000015 43.904596 -0.000018 49.649004 -24.295584 -60.135574 -10.549219 9.206712 -9.278973 5.464522 -13.128953 -13.867210 -5.504768 -5.510972 -14.718515 0.000000 0.000001 -0.000001 0.052188 -2.478488 2.412163 -0.000000 -0.000000 -0.000000 -0.000000 0.000000 0.000000 0.000000 0.000000 0.000000 0.052188 -2.478488 2.412163 0.000000 -0.000000 0.000009 0.000000 0.000000 -0.000000 -0.000000 -0.000000 -0.000000 0.052187 -2.478488 2.412163 -0.000001 -0.000000 0.000001 0.000000 -0.000001 0.000000 0.000000 -0.000001 0.000000 0.052188 -2.478488 2.412163 0.000000 -0.000001 0.000014 -0.000001 -0.000000 -0.000001 0.000000 -0.000000 0.000000 -112.970509 4.791765 42.621897 105.451605 7.756770 2.234039 19.676447 -30.783587 -12.295100 -1.572398 0.000000 -0.000006 -0.000000 0.000000 -0.000000 -37.318142 -31.838667 50.075126 116.531565 -19.966593 -5.902812 -1.310672 7.780580 33.316567 -5.189697 0.029086 1.290795 0.000000 0.000000 0.000001 
38.799660 16.320747 411.928894 366.877874 -50.658451 47.299709 17.242650 -8.928478 -11.021114 17.863112 -11.256795 -5.641525 15.614765 -10.636820 -6.326644 15.432732 -5.232211 -7.402764 -10.441053 -17.135659 -2.723418 0.000000 -0.000001 0.000000 -17.608902 -21.734627 10.149834 -28.900552 -30.534624 -1.834662 -0.000019 -64.965194 -0.000026 1.971818 8.644900 -8.975725 -12.385072 -8.253752 14.297943 5.323111 11.677199 9.388748 -7.335823 -0.421709 13.147359 -0.000002 -0.000000 -0.000002 0.115361 3.134720 -7.581337 0.390549 2.105021 -21.018977 0.099565 1.076618 -10.567033 -0.000000 0.000000 -0.000001 0.136468 3.279270 -9.008024 0.390547 2.105019 -21.018966 0.099566 1.076622 -10.567045 0.000002 0.000000 0.000000 0.134928 3.269514 -8.911548 0.390546 2.105019 -21.018959 0.099565 1.076620 -10.567037 -0.000001 0.000000 0.000001 0.129417 3.233707 -8.557741 0.390547 2.105024 -21.018980 0.099565 1.076623 -10.567043 -0.000001 0.000000 0.000001 0.565229 4.884122 25.250769 -41.766197 29.055174 61.325987 0.000009 50.963764 -0.000009 47.692233 -21.534523 -59.996662 -10.549214 9.206712 -9.278973 5.464523 -13.128955 -13.867218 -5.504773 -5.510972 -14.718510 -0.000000 0.000000 -0.000002 0.052189 -2.478488 2.412164 0.000000 0.000001 0.000004 -0.000000 -0.000000 0.000000 -0.000000 0.000000 0.000000 0.052189 -2.478488 2.412164 -0.000000 0.000001 0.000002 -0.000001 -0.000001 -0.000001 0.000000 -0.000000 0.000000 0.052189 -2.478488 2.412164 0.000001 -0.000001 0.000022 -0.000000 -0.000000 0.000000 0.000000 -0.000000 -0.000000 0.052189 -2.478488 2.412164 0.000000 0.000000 0.000012 -0.000000 -0.000000 -0.000001 0.000001 -0.000000 0.000000 -117.443887 1.152624 41.935476 111.164723 10.655173 3.402381 14.034086 -30.475286 -16.655261 -1.632310 -0.000024 0.000006 0.000000 0.000000 -0.000000 -34.140004 -22.932201 46.112492 119.971112 -12.433071 -2.052063 -11.203470 8.564694 33.317700 -4.534467 0.033651 1.348278 -0.000000 0.000001 0.000000 
39.764450 16.477013 415.124115 374.980254 -51.195109 53.818616 17.096153 -8.221875 -11.737643 17.660836 -10.813363 -5.759681 15.695850 -10.377636 -6.491771 15.605288 -4.984296 -7.227878 -12.144668 -18.195272 -2.337656 0.000000 0.000001 -0.000000 -12.183821 -20.899689 8.076180 -23.312802 -32.708854 1.702244 -0.000001 -58.341488 -0.000000 0.743442 5.856807 -9.937094 -11.344643 -7.831109 12.708182 5.112340 11.296967 12.357741 -7.335829 -0.421713 13.147353 -0.000002 -0.000001 -0.000000 0.101068 3.018664 -6.439523 0.214527 1.572376 -15.537333 0.030800 0.600622 -5.871476 0.000000 -0.000000 -0.000001 0.114483 3.128111 -7.516246 0.214528 1.572381 -15.537347 0.030802 0.600620 -5.871483 -0.000001 0.000000 0.000001 0.113512 3.120721 -7.443445 0.214530 1.572375 -15.537340 0.030803 0.600615 -5.871468 0.000000 -0.000001 0.000002 0.110027 3.093594 -7.176414 0.214527 1.572384 -15.537338 0.030800 0.600616 -5.871463 0.000001 0.000000 -0.000001 0.316016 7.072811 23.557913 -38.589609 25.742291 56.311368 -0.000028 54.036669 0.000002 43.799076 -18.166609 -62.606470 -10.549219 9.206710 -9.278972 5.464519 -13.128955 -13.867218 -5.504761 -5.510970 -14.718503 0.000001 -0.000002 -0.000001 0.052188 -2.478489 2.412164 -0.000000 0.000001 0.000005 -0.000001 -0.000000 -0.000001 -0.000000 -0.000000 -0.000001 0.052188 -2.478488 2.412164 -0.000000 -0.000001 0.000005 0.000000 -0.000000 -0.000002 -0.000000 -0.000001 -0.000000 0.052188 -2.478489 2.412165 0.000000 -0.000001 -0.000000 0.000000 -0.000000 -0.000000 0.000000 -0.000001 0.000000 0.052188 -2.478489 2.412164 -0.000000 -0.000000 0.000013 -0.000000 -0.000000 -0.000001 0.000000 -0.000000 -0.000001 -121.688358 -0.138716 40.353909 116.072412 14.393020 5.004474 8.047091 -29.093768 -20.908964 -1.632857 0.000019 -0.000000 -0.000000 -0.000003 -0.000000 -21.286518 -25.331864 50.215370 122.623370 -15.098512 -7.018594 -19.913577 9.264580 26.271406 -5.856911 -0.000001 -0.000020 0.000000 0.000000 -0.000001 
